<svg width="60" height="60" viewBox="0 0 60 60" fill="none" xmlns="http://www.w3.org/2000/svg">
<g clip-path="url(#clip0)">
<path d="M47.2478 6.71074C42.2337 2.99684 36.2834 1.03453 30.0402 1.03453C24.3475 1.03453 18.6919 2.67316 14.4826 5.48484V1.03453C14.4826 0.463477 14.0192 0 13.4481 0C12.8771 0 12.4136 0.463477 12.4136 1.03453V7.54242C12.4136 7.94379 12.6453 8.30894 13.0084 8.47863C13.3715 8.64937 13.8008 8.59453 14.1092 8.33789C18.0546 5.06063 24.0102 3.10336 30.0402 3.10336C35.8364 3.10336 41.3605 4.92609 46.0167 8.3741C46.2019 8.51062 46.417 8.57684 46.6313 8.57684C46.9478 8.57684 47.2602 8.43199 47.463 8.15789C47.8034 7.69863 47.7072 7.05105 47.2478 6.71074Z" fill="white"/>
<path d="M58.9654 12.4138H52.4575C52.0562 12.4138 51.693 12.6466 51.5224 13.0097C51.3516 13.3728 51.4065 13.8021 51.6631 14.1105C54.9404 18.055 56.8976 24.0105 56.8976 30.0415C56.8976 35.8377 55.0749 41.3618 51.6269 46.017C51.2866 46.4762 51.3828 47.1238 51.8421 47.4643C52.0272 47.6008 52.2424 47.667 52.4566 47.667C52.7731 47.667 53.0855 47.5221 53.2893 47.248C57.0031 42.2339 58.9655 36.2835 58.9655 30.0405C58.9655 24.3477 57.3269 18.6912 54.5152 14.4829H58.9655C59.5366 14.4829 60.0001 14.0194 60.0001 13.4484C59.9999 12.8773 59.5365 12.4138 58.9654 12.4138Z" fill="white"/>
<path d="M46.9926 51.5224C46.6296 51.3527 46.2013 51.4054 45.8919 51.6631C41.9464 54.9404 35.9908 56.8976 29.9608 56.8976C24.1636 56.8976 18.6395 55.0749 13.9843 51.6269C13.5251 51.2866 12.8775 51.3828 12.5371 51.8421C12.1967 52.3013 12.293 52.9489 12.7522 53.2893C17.7663 57.0031 23.7167 58.9655 29.9598 58.9655C35.6525 58.9655 41.3081 57.3269 45.5174 54.5152V58.9655C45.5174 59.5366 45.9808 60.0001 46.5519 60.0001C47.123 60.0001 47.5864 59.5366 47.5864 58.9655V52.4576C47.5864 52.0562 47.3548 51.691 46.9926 51.5224Z" fill="white"/>
<path d="M8.33789 45.8907C5.06063 41.9452 3.10336 35.9907 3.10336 29.9596C3.10336 24.1634 4.92609 18.6393 8.37305 13.9842C8.71336 13.5249 8.61715 12.8773 8.15789 12.5369C7.69863 12.1955 7.05105 12.2928 6.71063 12.7521C2.99684 17.7662 1.03453 23.7165 1.03453 29.9596C1.03453 35.6524 2.67316 41.308 5.48484 45.5172H1.03453C0.463477 45.5172 0 45.9807 0 46.5518C0 47.1228 0.463477 47.5863 1.03453 47.5863H7.54242C7.94379 47.5863 8.30789 47.3546 8.47863 46.9914C8.64937 46.6283 8.59453 46.1989 8.33789 45.8907Z" fill="white"/>
<path d="M31.0344 19.653C31.0333 19.082 30.5699 18.6206 29.9999 18.6206C29.9999 18.6206 29.9988 18.6206 29.9978 18.6206C29.4256 18.6217 28.9643 19.0861 28.9653 19.6571L28.9902 30.002C28.9912 30.573 29.4547 31.0344 30.0247 31.0344C30.0258 31.0344 30.0268 31.0344 30.0268 31.0344C30.5989 31.0333 31.0603 30.5689 31.0592 29.9979L31.0344 19.653Z" fill="white"/>
<path d="M30.025 28.9655H23.7933C23.2223 28.9655 22.7588 29.4289 22.7588 30C22.7588 30.571 23.2223 31.0345 23.7933 31.0345H30.025C30.5961 31.0345 31.0595 30.571 31.0595 30C31.0595 29.4289 30.5961 28.9655 30.025 28.9655Z" fill="white"/>
<path d="M30 8.27588C18.0217 8.27588 8.27588 18.0207 8.27588 30C8.27588 41.9792 18.0217 51.7241 30 51.7241C41.9792 51.7241 51.7241 41.9792 51.7241 30C51.7241 18.0207 41.9792 8.27588 30 8.27588ZM30 49.6551C19.1617 49.6551 10.3448 40.8383 10.3448 30C10.3448 19.1617 19.1617 10.3448 30 10.3448C40.8383 10.3448 49.6551 19.1617 49.6551 30C49.6551 40.8383 40.8383 49.6551 30 49.6551Z" fill="white"/>
<path d="M15.5171 28.9655H13.4481C12.8771 28.9655 12.4136 29.4289 12.4136 30C12.4136 30.571 12.8771 31.0345 13.4481 31.0345H15.5171C16.0881 31.0345 16.5516 30.571 16.5516 30C16.5516 29.4289 16.0881 28.9655 15.5171 28.9655Z" fill="white"/>
<path d="M46.5517 28.9655H44.4828C43.9117 28.9655 43.4482 29.4289 43.4482 30C43.4482 30.571 43.9117 31.0345 44.4828 31.0345H46.5517C47.1228 31.0345 47.5863 30.571 47.5863 30C47.5863 29.4289 47.1228 28.9655 46.5517 28.9655Z" fill="white"/>
<path d="M29.9999 43.4482C29.4288 43.4482 28.9653 43.9117 28.9653 44.4828V46.5517C28.9653 47.1228 29.4288 47.5863 29.9999 47.5863C30.5709 47.5863 31.0344 47.1228 31.0344 46.5517V44.4828C31.0344 43.9116 30.5709 43.4482 29.9999 43.4482Z" fill="white"/>
<path d="M29.9999 12.4138C29.4288 12.4138 28.9653 12.8773 28.9653 13.4484V15.5173C28.9653 16.0884 29.4288 16.5518 29.9999 16.5518C30.5709 16.5518 31.0344 16.0884 31.0344 15.5173V13.4484C31.0344 12.8773 30.5709 12.4138 29.9999 12.4138Z" fill="white"/>
<path d="M20.3863 39.6135C19.9828 39.2089 19.328 39.2089 18.9236 39.6135L17.5643 40.9718C17.1608 41.3753 17.1608 42.0301 17.5643 42.4345C17.766 42.6362 18.0308 42.7376 18.2957 42.7376C18.5605 42.7376 18.8254 42.6373 19.0271 42.4345L20.3863 41.0762C20.7898 40.6727 20.7898 40.0179 20.3863 39.6135Z" fill="white"/>
<path d="M42.4345 17.5655C42.03 17.161 41.3762 17.161 40.9718 17.5655L39.6135 18.9238C39.2089 19.3283 39.2089 19.9821 39.6135 20.3865C39.8151 20.5882 40.08 20.6896 40.3448 20.6896C40.6097 20.6896 40.8745 20.5882 41.0762 20.3865L42.4345 19.0282C42.8389 18.6238 42.8389 17.97 42.4345 17.5655Z" fill="white"/>
<path d="M42.4345 40.9717L41.0762 39.6133C40.6717 39.2088 40.0179 39.2088 39.6135 39.6133C39.2089 40.0179 39.2089 40.6717 39.6135 41.0761L40.9718 42.4344C41.1735 42.6361 41.4383 42.7374 41.7031 42.7374C41.968 42.7374 42.2328 42.6371 42.4345 42.4344C42.8389 42.03 42.8389 41.3762 42.4345 40.9717Z" fill="white"/>
<path d="M20.3866 18.9238L19.0274 17.5655C18.6239 17.161 17.969 17.161 17.5646 17.5655C17.1601 17.97 17.1601 18.6247 17.5646 19.0282L18.9239 20.3865C19.1256 20.5882 19.3904 20.6896 19.6553 20.6896C19.9201 20.6896 20.1849 20.5882 20.3866 20.3865C20.7912 19.9821 20.7912 19.3273 20.3866 18.9238Z" fill="white"/>
</g>
<defs>
<clipPath id="clip0">
<rect width="60" height="60" fill="white"/>
</clipPath>
</defs>
</svg>
